<svg width="31" height="29" viewBox="0 0 31 29" fill="none" xmlns="http://www.w3.org/2000/svg">
<path d="M15.617 28.117L13.442 26.167C10.917 23.892 8.82954 21.9295 7.17953 20.2795C5.52954 18.6295 4.21704 17.1545 3.24204 15.8545C2.26704 14.5295 1.57954 13.317 1.17953 12.217C0.804535 11.117 0.617035 9.99198 0.617035 8.84198C0.617035 6.49198 1.40454 4.52948 2.97954 2.95448C4.55454 1.37948 6.51704 0.59198 8.86704 0.59198C10.167 0.59198 11.4045 0.86698 12.5795 1.41698C13.7545 1.96698 14.767 2.74198 15.617 3.74198C16.467 2.74198 17.4795 1.96698 18.6545 1.41698C19.8295 0.86698 21.067 0.59198 22.367 0.59198C24.717 0.59198 26.6795 1.37948 28.2545 2.95448C29.8295 4.52948 30.617 6.49198 30.617 8.84198C30.617 9.99198 30.417 11.117 30.017 12.217C29.642 13.317 28.967 14.5295 27.992 15.8545C27.017 17.1545 25.7045 18.6295 24.0545 20.2795C22.4045 21.9295 20.317 23.892 17.792 26.167L15.617 28.117ZM15.617 24.067C18.017 21.917 19.992 20.0795 21.542 18.5545C23.092 17.0045 24.317 15.667 25.217 14.542C26.117 13.392 26.742 12.3795 27.092 11.5045C27.442 10.6045 27.617 9.71698 27.617 8.84198C27.617 7.34198 27.117 6.09198 26.117 5.09198C25.117 4.09198 23.867 3.59198 22.367 3.59198C21.192 3.59198 20.1045 3.92948 19.1045 4.60448C18.1045 5.25448 17.417 6.09198 17.042 7.11698H14.192C13.817 6.09198 13.1295 5.25448 12.1295 4.60448C11.1295 3.92948 10.042 3.59198 8.86704 3.59198C7.36704 3.59198 6.11703 4.09198 5.11703 5.09198C4.11703 6.09198 3.61703 7.34198 3.61703 8.84198C3.61703 9.71698 3.79204 10.6045 4.14204 11.5045C4.49204 12.3795 5.11704 13.392 6.01704 14.542C6.91704 15.667 8.14204 17.0045 9.69204 18.5545C11.242 20.0795 13.217 21.917 15.617 24.067Z" fill="white"/>
</svg>
