<svg width="40" height="40" viewBox="0 0 40 40" fill="none" xmlns="http://www.w3.org/2000/svg">
<path fill-rule="evenodd" clip-rule="evenodd" d="M19.0001 0V14.5257C14.8604 14.3271 10.9655 12.9014 8.0604 10.5381C6.7352 9.46001 5.66535 8.22833 4.87199 6.90125C8.3358 2.89451 13.3609 0.27799 19.0001 0ZM21.0001 1.2793e-05V14.5257C25.1399 14.3271 29.0347 12.9014 31.9399 10.5381C33.265 9.46005 34.3348 8.22844 35.1282 6.90143C31.6644 2.89465 26.6393 0.278075 21.0001 1.2793e-05ZM36.4307 8.57975C35.5681 9.86381 34.4832 11.0472 33.202 12.0895C29.9118 14.7661 25.5609 16.328 21.0001 16.5278L21.0001 23.4714C23.0996 23.5634 25.1698 23.9446 27.1227 24.6027C29.385 25.365 31.4521 26.4861 33.202 27.9096C34.4741 28.9445 35.5623 30.1261 36.4311 31.4197C38.6811 28.1805 40 24.2445 40 20C40 15.7553 38.6809 11.819 36.4307 8.57975ZM35.1284 33.0983C34.3289 31.7615 33.2544 30.5305 31.9399 29.4611C30.3881 28.1988 28.5355 27.1893 26.4841 26.498C24.7401 25.9104 22.8861 25.5641 21.0001 25.4735V40C26.6394 39.7219 31.6646 37.1053 35.1284 33.0983ZM19.0001 40V25.4735C17.1141 25.5641 15.2601 25.9104 13.5162 26.498C11.4647 27.1893 9.61214 28.1988 8.0604 29.4611C6.74575 30.5306 5.67123 31.7616 4.87179 33.0985C8.33562 37.1054 13.3608 39.722 19.0001 40ZM3.569 31.4199C4.43786 30.1262 5.52608 28.9446 6.79828 27.9096C8.54818 26.4861 10.6152 25.365 12.8775 24.6027C14.8305 23.9446 16.9007 23.5634 19.0001 23.4714L19.0001 16.5278C14.4394 16.328 10.0885 14.7661 6.79828 12.0895C5.51695 11.0472 4.43201 9.8637 3.5694 8.57956C1.31915 11.8189 0 15.7552 0 20C0 24.2446 1.319 28.1807 3.569 31.4199Z" fill="#222222"/>
</svg>
